<svg width="20" height="21" viewBox="0 0 20 21" fill="none" xmlns="http://www.w3.org/2000/svg">
<mask id="mask0_1_787" style="mask-type:alpha" maskUnits="userSpaceOnUse" x="0" y="0" width="20" height="21">
<rect y="0.5" width="20" height="20" fill="#D9D9D9"/>
</mask>
<g mask="url(#mask0_1_787)">
<path d="M9.99998 10.5C10.4583 10.5 10.8507 10.3368 11.1771 10.0104C11.5035 9.68399 11.6666 9.29163 11.6666 8.83329C11.6666 8.37496 11.5035 7.9826 11.1771 7.65621C10.8507 7.32982 10.4583 7.16663 9.99998 7.16663C9.54165 7.16663 9.14929 7.32982 8.8229 7.65621C8.49651 7.9826 8.33331 8.37496 8.33331 8.83329C8.33331 9.29163 8.49651 9.68399 8.8229 10.0104C9.14929 10.3368 9.54165 10.5 9.99998 10.5ZM9.99998 16.625C11.6944 15.0694 12.9514 13.6562 13.7708 12.3854C14.5903 11.1145 15 9.98607 15 8.99996C15 7.48607 14.5173 6.24649 13.5521 5.28121C12.5868 4.31593 11.4028 3.83329 9.99998 3.83329C8.5972 3.83329 7.41317 4.31593 6.4479 5.28121C5.48262 6.24649 4.99998 7.48607 4.99998 8.99996C4.99998 9.98607 5.4097 11.1145 6.22915 12.3854C7.04859 13.6562 8.30553 15.0694 9.99998 16.625ZM9.99998 18.8333C7.76387 16.9305 6.09373 15.1632 4.98956 13.5312C3.8854 11.8993 3.33331 10.3888 3.33331 8.99996C3.33331 6.91663 4.00345 5.2569 5.34373 4.02079C6.68401 2.78468 8.23609 2.16663 9.99998 2.16663C11.7639 2.16663 13.316 2.78468 14.6562 4.02079C15.9965 5.2569 16.6666 6.91663 16.6666 8.99996C16.6666 10.3888 16.1146 11.8993 15.0104 13.5312C13.9062 15.1632 12.2361 16.9305 9.99998 18.8333Z" fill="#E8E9E9"/>
</g>
</svg>
